<svg width="25" height="25" viewBox="0 0 25 25" fill="none" xmlns="http://www.w3.org/2000/svg">
<path d="M20.4996 16.4999C20.4996 16.8507 20.401 17.1759 20.2429 17.462L15.1911 11.8097L20.1882 7.43765C20.3826 7.74614 20.4996 8.10851 20.4996 8.50009V16.4999ZM12.4997 12.836L19.4529 6.752C19.1676 6.59579 18.8463 6.5 18.4997 6.5H6.49962C6.15259 6.5 5.83118 6.59579 5.547 6.752L12.4997 12.836ZM14.4382 12.4679L12.8287 13.8771C12.7345 13.9591 12.6173 14 12.4997 14C12.3819 14 12.2647 13.9591 12.1706 13.8771L10.5607 12.4678L5.44494 18.1924C5.75158 18.3848 6.11094 18.5 6.49959 18.5H18.4997C18.8883 18.5 19.2478 18.3848 19.5543 18.1924L14.4382 12.4679ZM4.81119 7.43762C4.61683 7.74611 4.49963 8.10847 4.49963 8.50009V16.5C4.49963 16.8507 4.59783 17.1759 4.75648 17.462L9.80774 11.8087L4.81119 7.43762Z" fill="#929AA2"/>
</svg>
