<svg width="25" height="25" viewBox="0 0 25 25" fill="none" xmlns="http://www.w3.org/2000/svg">
<path d="M12.5001 12.3469C14.1344 12.3469 15.4595 10.8142 15.4595 8.92348C15.4595 7.03272 15.0245 5.5 12.5001 5.5C9.97565 5.5 9.54053 7.03272 9.54053 8.92348C9.54053 10.8142 10.8656 12.3469 12.5001 12.3469Z" fill="#929AA2"/>
<path d="M18.0835 17.4361C18.0287 14.1424 17.5771 13.2039 14.1208 12.6098C14.1208 12.6098 13.6342 13.2003 12.5002 13.2003C11.3662 13.2003 10.8796 12.6098 10.8796 12.6098C7.46102 13.1974 6.98188 14.122 6.91888 17.3291C6.91372 17.591 6.91132 17.6048 6.9104 17.5744C6.91061 17.6313 6.91086 17.7367 6.91086 17.9204C6.91086 17.9204 7.73373 19.5003 12.5002 19.5003C17.2666 19.5003 18.0896 17.9204 18.0896 17.9204C18.0896 17.8024 18.0897 17.7203 18.0898 17.6645C18.0889 17.6833 18.087 17.6468 18.0835 17.4361Z" fill="#929AA2"/>
</svg>
