<svg width="30" height="30" viewBox="0 0 30 30" fill="none" xmlns="http://www.w3.org/2000/svg">
<rect width="30" height="30" rx="15" fill="#11263A"/>
<path d="M17.8409 9.31975L16.367 9.31738C14.7112 9.31738 13.6411 10.4152 13.6411 12.1145V13.4041H12.1592C12.0312 13.4041 11.9275 13.5079 11.9275 13.636V15.5045C11.9275 15.6326 12.0313 15.7363 12.1592 15.7363H13.6411V20.4512C13.6411 20.5792 13.7448 20.6829 13.8729 20.6829H15.8063C15.9344 20.6829 16.0381 20.5791 16.0381 20.4512V15.7363H17.7708C17.8988 15.7363 18.0025 15.6326 18.0025 15.5045L18.0032 13.636C18.0032 13.5745 17.9788 13.5156 17.9354 13.4721C17.892 13.4286 17.8328 13.4041 17.7714 13.4041H16.0381V12.3109C16.0381 11.7854 16.1633 11.5186 16.8478 11.5186L17.8406 11.5183C17.9686 11.5183 18.0723 11.4145 18.0723 11.2865V9.5515C18.0723 9.42368 17.9687 9.31998 17.8409 9.31975Z" fill="white"/>
</svg>
