<svg width="19" height="19" viewBox="0 0 19 19" fill="none" xmlns="http://www.w3.org/2000/svg">
<path d="M16.4988 3.64969C16.0945 3.24515 15.6144 2.92424 15.086 2.70529C14.5576 2.48635 13.9912 2.37366 13.4193 2.37366C12.8473 2.37366 12.2809 2.48635 11.7525 2.70529C11.2241 2.92424 10.744 3.24515 10.3397 3.64969L9.5005 4.48885L8.66133 3.64969C7.84458 2.83293 6.73682 2.37408 5.58175 2.37408C4.42668 2.37408 3.31892 2.83293 2.50217 3.64969C1.68541 4.46644 1.22656 5.5742 1.22656 6.72927C1.22656 7.88434 1.68541 8.9921 2.50217 9.80885L3.34133 10.648L9.5005 16.8072L15.6597 10.648L16.4988 9.80885C16.9034 9.4045 17.2243 8.92441 17.4432 8.39601C17.6622 7.8676 17.7749 7.30124 17.7749 6.72927C17.7749 6.1573 17.6622 5.59093 17.4432 5.06253C17.2243 4.53412 16.9034 4.05403 16.4988 3.64969V3.64969Z" stroke="#181818" stroke-width="2" stroke-linecap="round" stroke-linejoin="round"/>
</svg>
