<svg width="25" height="25" viewBox="0 0 25 25" fill="none" xmlns="http://www.w3.org/2000/svg">
<path d="M17.2744 14.258C16.7684 13.7585 16.1368 13.7585 15.634 14.258C15.2505 14.6383 14.867 15.0186 14.49 15.4053C14.3869 15.5116 14.2999 15.5342 14.1742 15.4633C13.926 15.3279 13.6618 15.2184 13.4233 15.0701C12.3115 14.3708 11.3801 13.4717 10.5551 12.4598C10.1458 11.957 9.78168 11.4188 9.52709 10.813C9.47553 10.6905 9.4852 10.6099 9.5851 10.51C9.9686 10.1394 10.3424 9.75916 10.7195 9.37888C11.2448 8.85037 11.2448 8.23161 10.7163 7.69987C10.4165 7.39694 10.1168 7.10046 9.81713 6.79753C9.50776 6.48815 9.2016 6.17555 8.889 5.8694C8.38305 5.37633 7.7514 5.37633 7.24867 5.87262C6.86195 6.2529 6.49134 6.64284 6.09818 7.01667C5.73401 7.36149 5.55032 7.78366 5.51165 8.27673C5.45042 9.07918 5.647 9.8365 5.92415 10.5745C6.49134 12.102 7.35502 13.4588 8.40238 14.7027C9.81713 16.385 11.5058 17.7159 13.4813 18.6763C14.3708 19.1081 15.2924 19.4401 16.2947 19.4948C16.9843 19.5335 17.5838 19.3595 18.0639 18.8213C18.3926 18.4539 18.7633 18.1188 19.1113 17.7675C19.6269 17.2454 19.6301 16.6138 19.1177 16.0981C18.5054 15.4826 17.8899 14.8703 17.2744 14.258Z" fill="#929AA2"/>
</svg>
