<svg width="30" height="30" viewBox="0 0 30 30" fill="none" xmlns="http://www.w3.org/2000/svg">
<rect width="30" height="30" rx="15" fill="#11263A"/>
<path fill-rule="evenodd" clip-rule="evenodd" d="M9.5 11.7805C9.5 10.3676 10.6454 9.22217 12.0583 9.22217H17.9419C19.3548 9.22217 20.5001 10.3675 20.5001 11.7804V18.2196C20.5001 19.6325 19.3548 20.7779 17.9419 20.7779H12.0583C10.6454 20.7779 9.5 19.6325 9.5 18.2196V11.7805ZM12.3556 14.9997C12.3556 13.527 13.5496 12.333 15.0223 12.333C16.4951 12.333 17.689 13.527 17.689 14.9997V15.1571C17.689 16.6298 16.4951 17.8238 15.0223 17.8238C13.5496 17.8238 12.3556 16.6298 12.3556 15.1571V14.9997ZM18.1219 10.8889C17.723 10.8889 17.3996 11.2123 17.3996 11.6112C17.3996 12.0101 17.723 12.3334 18.1219 12.3334C18.5207 12.3334 18.8441 12.0101 18.8441 11.6112C18.8441 11.2123 18.5207 10.8889 18.1219 10.8889Z" fill="white"/>
<path d="M13.3689 15C13.3689 14.0992 14.0992 13.3689 15 13.3689C15.9009 13.3689 16.6312 14.0992 16.6312 15C16.6312 15.9008 15.9009 16.6311 15 16.6311C14.0992 16.6311 13.3689 15.9008 13.3689 15Z" fill="white"/>
</svg>
