<svg width="229" height="79" viewBox="0 0 229 79" fill="none" xmlns="http://www.w3.org/2000/svg">
<path d="M6.07468 64.3758L4.16645 69.3588C4.272 69.3588 4.42477 69.3616 4.62476 69.3672C5.2525 69.3838 5.68026 69.3922 5.90803 69.3922C6.18579 69.3922 6.68854 69.3838 7.41628 69.3672C7.57738 69.3616 7.6996 69.3588 7.78293 69.3588L6.07468 64.3758ZM5.6997 62.8092H7.13296C7.85515 65.0146 8.53845 67.0284 9.18286 68.8505C9.83282 70.6726 10.3439 72.042 10.7161 72.9586C10.9383 73.4864 11.13 73.8114 11.2911 73.9336C11.4522 74.0558 11.6827 74.1169 11.9827 74.1169H12.1494V74.7002C11.7161 74.678 11.3189 74.6613 10.9578 74.6502C10.6022 74.6391 10.3022 74.6336 10.0578 74.6336C9.74672 74.6336 9.40507 74.6391 9.03286 74.6502C8.66066 74.6613 8.26624 74.678 7.84959 74.7002V74.1169H8.00792C8.40234 74.1169 8.67177 74.0725 8.81621 73.9836C8.96065 73.8891 9.03286 73.7197 9.03286 73.4753C9.03286 73.3864 9.02175 73.2892 8.99953 73.1836C8.97731 73.0725 8.9412 72.942 8.8912 72.792L8.07458 70.2421C7.86348 70.2421 7.57461 70.2393 7.20796 70.2338C6.54133 70.2171 6.11357 70.2088 5.92469 70.2088C5.54693 70.2088 5.18862 70.2116 4.84975 70.2171C4.51643 70.2171 4.16923 70.2227 3.80814 70.2338C3.41371 71.2282 3.14428 71.9531 2.99984 72.4087C2.85541 72.8642 2.78319 73.1892 2.78319 73.3836C2.78319 73.6558 2.85541 73.8475 2.99984 73.9586C3.14428 74.0641 3.4026 74.1169 3.7748 74.1169H3.99979V74.7002C3.59426 74.678 3.21372 74.6613 2.85818 74.6502C2.5082 74.6391 2.19433 74.6336 1.91657 74.6336C1.69436 74.6336 1.41659 74.6391 1.08328 74.6502C0.749961 74.6613 0.388869 74.678 0 74.7002V74.1252C0.394424 74.1141 0.705519 74.0364 0.933285 73.8919C1.16661 73.7419 1.36937 73.4947 1.54159 73.1503C1.85268 72.5003 2.40265 71.2004 3.1915 69.2505C3.9859 67.295 4.82197 65.1479 5.6997 62.8092Z" fill="white"/>
<path d="M17.5991 74.7169C17.4213 74.7169 17.2519 74.7113 17.0908 74.7002C16.9297 74.6891 16.7519 74.678 16.5575 74.6669C16.3686 74.6558 16.1519 74.6447 15.9075 74.6336C15.6686 74.6224 15.3825 74.6169 15.0492 74.6169C14.7659 74.6169 14.477 74.6252 14.1826 74.6419C13.8937 74.653 13.5576 74.6724 13.1743 74.7002V74.1169H13.366C13.6104 74.1169 13.8021 74.0447 13.9409 73.9003C14.0798 73.7503 14.1826 73.5697 14.2493 73.3586C14.3215 73.142 14.3659 72.9142 14.3826 72.6753C14.3993 72.4309 14.4076 72.217 14.4076 72.0337V69.1838C14.4076 68.7116 14.3909 68.3367 14.3576 68.0589C14.3243 67.7811 14.2659 67.5728 14.1826 67.4339C14.1048 67.295 13.9993 67.2062 13.8659 67.1673C13.7382 67.1284 13.5771 67.1089 13.3826 67.1089H13.191V66.5256C13.6798 66.559 14.0715 66.5812 14.3659 66.5923C14.6659 66.6034 14.8992 66.609 15.0659 66.609C15.327 66.609 15.552 66.6062 15.7408 66.6006C15.9297 66.5895 16.1047 66.5812 16.2658 66.5756C16.4325 66.5645 16.5908 66.5562 16.7408 66.5506C16.8963 66.5395 17.0713 66.5312 17.2658 66.5256C17.8213 66.5256 18.2935 66.584 18.6824 66.7006C19.0712 66.8117 19.3851 66.9617 19.624 67.1506C19.8684 67.3395 20.0434 67.5589 20.149 67.8089C20.2601 68.0533 20.3156 68.3061 20.3156 68.5672C20.3156 68.9561 20.1934 69.3144 19.949 69.6421C19.7101 69.9644 19.3795 70.2116 18.9573 70.3838C19.2573 70.4504 19.524 70.5504 19.7573 70.6838C19.9962 70.8115 20.1934 70.9643 20.3489 71.1421C20.51 71.3198 20.6323 71.5143 20.7156 71.7254C20.7989 71.9365 20.8406 72.1587 20.8406 72.392C20.8406 72.792 20.7517 73.1392 20.5739 73.4336C20.4017 73.728 20.1656 73.9697 19.8656 74.1586C19.5712 74.3475 19.2268 74.4891 18.8324 74.5836C18.4435 74.6724 18.0324 74.7169 17.5991 74.7169ZM15.8075 73.8169C15.9742 73.8614 16.1381 73.8947 16.2992 73.9169C16.4658 73.9391 16.6158 73.9586 16.7491 73.9753C16.888 73.9864 17.0075 73.9947 17.1074 74.0003C17.213 74.0003 17.2908 74.0003 17.3408 74.0003C17.7019 74.0003 18.0102 73.9558 18.2657 73.8669C18.5213 73.778 18.7268 73.6586 18.8824 73.5086C19.0435 73.3531 19.1601 73.1781 19.2323 72.9836C19.3046 72.7836 19.3407 72.5753 19.3407 72.3587C19.3407 72.1309 19.3046 71.9254 19.2323 71.742C19.1601 71.5532 19.0379 71.3921 18.8657 71.2587C18.699 71.1254 18.4713 71.0226 18.1824 70.9504C17.8991 70.8782 17.5463 70.8421 17.1241 70.8421C16.7352 70.8421 16.2908 70.8754 15.7908 70.9421L15.8075 73.8169ZM15.7908 70.1338C16.0186 70.1505 16.2269 70.1643 16.4158 70.1755C16.6047 70.1866 16.788 70.1921 16.9658 70.1921C17.1991 70.1921 17.4213 70.1866 17.6324 70.1755C17.8491 70.1643 18.0768 70.1449 18.3157 70.1171C18.5268 69.9394 18.6768 69.7338 18.7657 69.5005C18.8601 69.2672 18.9074 69.0255 18.9074 68.7755C18.9074 68.5755 18.874 68.3867 18.8074 68.2089C18.7462 68.0256 18.6379 67.8672 18.4824 67.7339C18.3268 67.595 18.1213 67.4867 17.8657 67.4089C17.6158 67.3256 17.3047 67.2839 16.9325 67.2839C16.7658 67.2839 16.5825 67.2923 16.3825 67.3089C16.1825 67.32 16.0019 67.3395 15.8408 67.3673L15.7908 70.1338Z" fill="white"/>
<path d="M29.5818 73.4919L29.8151 74.0169C29.3985 74.3169 29.0179 74.5474 28.6735 74.7085C28.3291 74.8752 28.0513 74.9585 27.8402 74.9585C27.4847 74.9585 27.218 74.8558 27.0403 74.6502C26.8625 74.4391 26.7653 74.1225 26.7486 73.7003C26.1431 74.1058 25.6403 74.3975 25.2404 74.5752C24.8404 74.7474 24.4821 74.8335 24.1654 74.8335C23.6043 74.8335 23.1349 74.6224 22.7572 74.2002C22.3794 73.778 22.1905 73.2614 22.1905 72.6503C22.1905 71.6115 23.3099 70.8282 25.5487 70.3004C26.0764 70.1782 26.4875 70.081 26.7819 70.0088C26.7819 69.9144 26.7847 69.7782 26.7903 69.6005C26.8069 69.2338 26.8153 68.995 26.8153 68.8839C26.8153 68.3061 26.6958 67.8811 26.457 67.6089C26.2181 67.3312 25.8542 67.1923 25.3653 67.1923C24.8876 67.1923 24.5098 67.2812 24.2321 67.4589C23.9599 67.6311 23.8238 67.8672 23.8238 68.1672C23.8238 68.195 23.8265 68.2339 23.8321 68.2839C23.8377 68.3283 23.8404 68.3617 23.8404 68.3839C23.8404 68.5561 23.7571 68.7005 23.5904 68.8172C23.4238 68.9283 23.2238 68.9838 22.9905 68.9838C22.7905 68.9838 22.6433 68.9505 22.5488 68.8839C22.4544 68.8172 22.4072 68.7144 22.4072 68.5755C22.4072 68.1311 22.7822 67.6367 23.5321 67.0923C24.2821 66.5423 25.057 66.2673 25.857 66.2673C26.6292 66.2673 27.2153 66.4812 27.6152 66.909C28.0152 67.3312 28.2152 67.9533 28.2152 68.7755C28.2152 69.2199 28.1874 69.9032 28.1319 70.8254C28.0819 71.7476 28.0569 72.4476 28.0569 72.9253C28.0569 73.2864 28.0958 73.5308 28.1735 73.6586C28.2569 73.7864 28.4013 73.8503 28.6068 73.8503C28.6957 73.8503 28.8096 73.8253 28.9485 73.7753C29.0929 73.7197 29.304 73.6253 29.5818 73.4919ZM26.7403 70.6754C26.6347 70.7032 26.4764 70.7449 26.2653 70.8004C24.4598 71.2948 23.5571 71.8781 23.5571 72.5503C23.5571 72.917 23.6738 73.217 23.9071 73.4503C24.1404 73.678 24.4487 73.7919 24.832 73.7919C25.0654 73.7919 25.3348 73.7308 25.6403 73.6086C25.9459 73.4864 26.3014 73.292 26.7069 73.0253L26.7403 70.6754Z" fill="white"/>
<path d="M32.6566 73.4919C32.99 73.653 33.3233 73.778 33.6566 73.8669C33.9899 73.9558 34.3065 74.0003 34.6065 74.0003C35.4287 74.0003 36.0731 73.7308 36.5398 73.192C37.012 72.6475 37.2481 71.892 37.2481 70.9254C37.2481 69.881 37.0175 69.0477 36.5564 68.4255C36.0953 67.7978 35.4898 67.4839 34.7399 67.4839C34.4177 67.4839 34.0788 67.5367 33.7232 67.6422C33.3733 67.7478 33.0344 67.8978 32.7066 68.0922C32.6844 68.9033 32.6677 69.6699 32.6566 70.3921C32.6455 71.1143 32.64 71.7754 32.64 72.3753C32.64 72.4809 32.6427 72.6587 32.6483 72.9086C32.6539 73.1531 32.6566 73.3475 32.6566 73.4919ZM32.7733 66.084L32.7066 67.4173C33.2122 67.0673 33.6816 66.8117 34.1149 66.6506C34.5538 66.4895 34.9843 66.409 35.4065 66.409C36.3231 66.409 37.0897 66.7756 37.7064 67.5089C38.323 68.2367 38.6313 69.1422 38.6313 70.2254C38.6313 71.6365 38.2369 72.742 37.4481 73.5419C36.6648 74.3363 35.5787 74.7335 34.1899 74.7335C33.9343 74.7335 33.676 74.7085 33.4149 74.6586C33.1538 74.603 32.8955 74.5252 32.64 74.4252V77.4001C32.64 78.0556 33.1205 78.3889 34.0816 78.4H34.0899V79C33.7232 78.9722 33.3677 78.95 33.0233 78.9333C32.6844 78.9222 32.3622 78.9167 32.0567 78.9167C31.8733 78.9167 31.6345 78.9222 31.34 78.9333C31.0456 78.9444 30.604 78.9667 30.0151 79V78.4C30.3762 78.4 30.6206 78.3806 30.7484 78.3417C30.8762 78.3084 30.9734 78.2445 31.0401 78.15C31.1845 77.9 31.2623 76.7668 31.2734 74.7502C31.2734 74.3336 31.2734 74.0086 31.2734 73.7753L31.29 71.8837V69.1338C31.29 68.445 31.2484 68.0145 31.165 67.8422C31.0873 67.67 30.9317 67.5839 30.6984 67.5839C30.6429 67.5839 30.5762 67.5895 30.4984 67.6006C30.4206 67.6117 30.3373 67.6284 30.2484 67.6506L30.1651 67.1423C30.6373 67.0089 31.0873 66.8562 31.515 66.684C31.9483 66.5062 32.3678 66.3062 32.7733 66.084Z" fill="white"/>
<path d="M46.6976 69.0505C46.5531 69.1838 46.4059 69.3227 46.2559 69.4672C46.1059 69.606 45.9476 69.756 45.781 69.9171L44.056 71.567C43.7838 71.8226 43.5255 72.067 43.2811 72.3003C43.0367 72.5337 42.7894 72.7725 42.5395 73.017C42.5395 73.167 42.545 73.3086 42.5561 73.4419C42.5672 73.5753 42.5978 73.6919 42.6478 73.7919C42.7033 73.8919 42.7867 73.9725 42.8978 74.0336C43.0144 74.0891 43.1755 74.1169 43.3811 74.1169H43.5977V74.7002C43.3144 74.678 43.0255 74.6586 42.7311 74.6419C42.4422 74.6252 42.1367 74.6169 41.8145 74.6169C41.5312 74.6169 41.2423 74.6252 40.9479 74.6419C40.659 74.653 40.3229 74.6724 39.9396 74.7002V74.1169H40.1312C40.3757 74.1169 40.5673 74.0447 40.7062 73.9003C40.8451 73.7503 40.9479 73.5697 41.0145 73.3586C41.0868 73.142 41.1312 72.9142 41.1479 72.6753C41.1645 72.4309 41.1729 72.217 41.1729 72.0337V69.1838C41.1729 68.2672 41.1006 67.6895 40.9562 67.4506C40.884 67.3284 40.7812 67.2423 40.6479 67.1923C40.5201 67.1367 40.3535 67.1089 40.1479 67.1089H39.9563V66.5256C40.4396 66.559 40.8173 66.5812 41.0895 66.5923C41.3617 66.6034 41.5812 66.609 41.7478 66.609C41.9256 66.609 42.1506 66.6034 42.4228 66.5923C42.7006 66.5812 43.0783 66.559 43.5561 66.5256V67.1089H43.3228C43.2116 67.1089 43.1061 67.1423 43.0061 67.2089C42.9061 67.27 42.82 67.3534 42.7478 67.4589C42.6089 67.6645 42.5395 68.1033 42.5395 68.7755V71.967C42.7006 71.817 42.8617 71.667 43.0228 71.517C43.1894 71.3615 43.3561 71.2032 43.5227 71.0421L45.331 69.3338L46.6892 68.0089C46.6781 67.7756 46.6476 67.5978 46.5976 67.4756C46.5476 67.3534 46.4809 67.2645 46.3976 67.2089C46.3198 67.1534 46.2282 67.1228 46.1226 67.1173C46.0226 67.1117 45.9171 67.1089 45.806 67.1089H45.681V66.5256C46.1587 66.559 46.5337 66.5812 46.8059 66.5923C47.0837 66.6034 47.3114 66.609 47.4892 66.609C47.6559 66.609 47.8753 66.6034 48.1475 66.5923C48.4197 66.5812 48.7752 66.559 49.2141 66.5256V67.1089H49.0225C48.7836 67.1089 48.5975 67.1617 48.4641 67.2673C48.3364 67.3728 48.2419 67.52 48.1808 67.7089C48.1253 67.8922 48.0919 68.1117 48.0808 68.3672C48.0697 68.6172 48.0642 68.8894 48.0642 69.1838V72.467C48.0642 72.6948 48.0697 72.9086 48.0808 73.1086C48.0919 73.3086 48.1253 73.4836 48.1808 73.6336C48.2419 73.7836 48.3364 73.903 48.4641 73.9919C48.5975 74.0752 48.7836 74.1169 49.0225 74.1169H49.2141V74.7002C48.7752 74.6669 48.403 74.6447 48.0975 74.6336C47.792 74.6224 47.5559 74.6169 47.3892 74.6169C47.2448 74.6169 47.1031 74.6197 46.9642 74.6252C46.8309 74.6252 46.6892 74.6308 46.5392 74.6419C46.3948 74.6474 46.2365 74.6558 46.0643 74.6669C45.8976 74.678 45.7115 74.6891 45.506 74.7002V74.1169H45.7226C46.0393 74.1169 46.2809 73.9503 46.4476 73.6169C46.6142 73.2781 46.6976 72.7809 46.6976 72.1253V69.0505Z" fill="white"/>
<path d="M56.997 69.0505C56.8526 69.1838 56.7054 69.3227 56.5554 69.4672C56.4054 69.606 56.2471 69.756 56.0804 69.9171L54.3555 71.567C54.0833 71.8226 53.825 72.067 53.5805 72.3003C53.3361 72.5337 53.0889 72.7725 52.8389 73.017C52.8389 73.167 52.8445 73.3086 52.8556 73.4419C52.8667 73.5753 52.8973 73.6919 52.9473 73.7919C53.0028 73.8919 53.0861 73.9725 53.1972 74.0336C53.3139 74.0891 53.475 74.1169 53.6805 74.1169H53.8972V74.7002C53.6139 74.678 53.325 74.6586 53.0306 74.6419C52.7417 74.6252 52.4362 74.6169 52.114 74.6169C51.8306 74.6169 51.5418 74.6252 51.2473 74.6419C50.9585 74.653 50.6224 74.6724 50.2391 74.7002V74.1169H50.4307C50.6751 74.1169 50.8668 74.0447 51.0057 73.9003C51.1446 73.7503 51.2473 73.5697 51.314 73.3586C51.3862 73.142 51.4307 72.9142 51.4473 72.6753C51.464 72.4309 51.4723 72.217 51.4723 72.0337V69.1838C51.4723 68.2672 51.4001 67.6895 51.2557 67.4506C51.1835 67.3284 51.0807 67.2423 50.9474 67.1923C50.8196 67.1367 50.6529 67.1089 50.4474 67.1089H50.2557V66.5256C50.739 66.559 51.1168 66.5812 51.389 66.5923C51.6612 66.6034 51.8806 66.609 52.0473 66.609C52.2251 66.609 52.4501 66.6034 52.7223 66.5923C53 66.5812 53.3778 66.559 53.8555 66.5256V67.1089H53.6222C53.5111 67.1089 53.4056 67.1423 53.3056 67.2089C53.2056 67.27 53.1195 67.3534 53.0472 67.4589C52.9084 67.6645 52.8389 68.1033 52.8389 68.7755V71.967C53 71.817 53.1611 71.667 53.3222 71.517C53.4889 71.3615 53.6555 71.2032 53.8222 71.0421L55.6304 69.3338L56.9887 68.0089C56.9776 67.7756 56.947 67.5978 56.897 67.4756C56.847 67.3534 56.7804 67.2645 56.6971 67.2089C56.6193 67.1534 56.5276 67.1228 56.4221 67.1173C56.3221 67.1117 56.2165 67.1089 56.1054 67.1089H55.9804V66.5256C56.4582 66.559 56.8332 66.5812 57.1054 66.5923C57.3831 66.6034 57.6109 66.609 57.7887 66.609C57.9553 66.609 58.1748 66.6034 58.447 66.5923C58.7192 66.5812 59.0747 66.559 59.5136 66.5256V67.1089H59.3219C59.083 67.1089 58.8969 67.1617 58.7636 67.2673C58.6358 67.3728 58.5414 67.52 58.4803 67.7089C58.4247 67.8922 58.3914 68.1117 58.3803 68.3672C58.3692 68.6172 58.3636 68.8894 58.3636 69.1838V72.467C58.3636 72.6948 58.3692 72.9086 58.3803 73.1086C58.3914 73.3086 58.4247 73.4836 58.4803 73.6336C58.5414 73.7836 58.6358 73.903 58.7636 73.9919C58.8969 74.0752 59.083 74.1169 59.3219 74.1169H59.5136V74.7002C59.0747 74.6669 58.7025 74.6447 58.397 74.6336C58.0914 74.6224 57.8553 74.6169 57.6887 74.6169C57.5442 74.6169 57.4026 74.6197 57.2637 74.6252C57.1304 74.6252 56.9887 74.6308 56.8387 74.6419C56.6943 74.6474 56.5359 74.6558 56.3637 74.6669C56.1971 74.678 56.011 74.6891 55.8054 74.7002V74.1169H56.0221C56.3387 74.1169 56.5804 73.9503 56.7471 73.6169C56.9137 73.2781 56.997 72.7809 56.997 72.1253V69.0505ZM57.2887 62.9342C57.1443 63.3008 56.9665 63.6147 56.7554 63.8758C56.5443 64.1313 56.3165 64.3424 56.0721 64.5091C55.8332 64.6757 55.5832 64.798 55.3221 64.8757C55.0666 64.9535 54.8166 64.9924 54.5722 64.9924C54.2277 64.9924 53.9361 64.9507 53.6972 64.8674C53.4583 64.7785 53.2667 64.6674 53.1222 64.5341C52.9778 64.3952 52.8723 64.2424 52.8056 64.0758C52.7445 63.9036 52.7139 63.7369 52.7139 63.5758C52.7139 63.4591 52.7334 63.348 52.7723 63.2425C52.8111 63.1314 52.8667 63.0342 52.9389 62.9508C53.0167 62.8675 53.1084 62.8036 53.2139 62.7592C53.325 62.7092 53.4528 62.6842 53.5972 62.6842C53.7639 62.6842 53.8916 62.7203 53.9805 62.7925C54.075 62.8592 54.1389 62.9425 54.1722 63.0425C54.2111 63.1425 54.2305 63.248 54.2305 63.3591C54.2305 63.4647 54.2222 63.5564 54.2055 63.6341C54.1611 63.8452 54.1861 63.998 54.2805 64.0924C54.375 64.1813 54.5416 64.2258 54.7805 64.2258C55.1694 64.2258 55.5416 64.0924 55.8971 63.8258C56.2582 63.5536 56.5637 63.1786 56.8137 62.7008L57.2887 62.9342Z" fill="white"/>
<path d="M67.2298 70.9171C67.1076 70.9115 66.991 70.9087 66.8799 70.9087C66.7743 70.9032 66.666 70.9004 66.5549 70.9004C66.4493 70.8949 66.3382 70.8921 66.2216 70.8921C66.1049 70.8865 65.9799 70.8837 65.8466 70.8837H64.605C64.355 70.8837 64.1189 70.8865 63.8967 70.8921C63.68 70.8976 63.455 70.906 63.2217 70.9171V72.4503C63.2217 72.7392 63.2245 72.9892 63.23 73.2003C63.2412 73.4114 63.2717 73.5864 63.3217 73.7253C63.3773 73.8586 63.4606 73.9586 63.5717 74.0253C63.6884 74.0864 63.8522 74.1169 64.0633 74.1169H64.28V74.7002C63.9967 74.678 63.7078 74.6586 63.4134 74.6419C63.1245 74.6252 62.819 74.6169 62.4968 74.6169C62.2134 74.6169 61.9246 74.6252 61.6301 74.6419C61.3413 74.653 61.0052 74.6724 60.6218 74.7002V74.1169H60.8135C61.0579 74.1169 61.2496 74.0447 61.3885 73.9003C61.5274 73.7503 61.6301 73.5697 61.6968 73.3586C61.769 73.142 61.8135 72.9142 61.8301 72.6753C61.8468 72.4309 61.8551 72.217 61.8551 72.0337V69.1838C61.8551 68.2672 61.7829 67.6895 61.6385 67.4506C61.5662 67.3284 61.4635 67.2423 61.3301 67.1923C61.2024 67.1367 61.0357 67.1089 60.8302 67.1089H60.6385V66.5256C61.1218 66.559 61.4996 66.5812 61.7718 66.5923C62.044 66.6034 62.2634 66.609 62.4301 66.609C62.6079 66.609 62.8328 66.6034 63.1051 66.5923C63.3828 66.5812 63.7606 66.559 64.2383 66.5256V67.1089H64.005C63.8939 67.1089 63.7884 67.1423 63.6884 67.2089C63.5884 67.27 63.5023 67.3534 63.43 67.4589C63.2912 67.6645 63.2217 68.1033 63.2217 68.7755V70.0505C63.4384 70.056 63.6522 70.0643 63.8633 70.0755C64.08 70.081 64.3022 70.0838 64.53 70.0838H65.8299C66.0855 70.0838 66.3243 70.081 66.5465 70.0755C66.7688 70.0643 66.9965 70.056 67.2298 70.0505V68.7755C67.2298 68.3922 67.2048 68.0922 67.1548 67.8756C67.1048 67.6534 67.0382 67.4867 66.9549 67.3756C66.8771 67.2589 66.7826 67.1867 66.6715 67.1589C66.566 67.1256 66.4549 67.1089 66.3382 67.1089H66.2132V66.5256C66.691 66.559 67.066 66.5812 67.3382 66.5923C67.6159 66.6034 67.8437 66.609 68.0215 66.609C68.1881 66.609 68.4076 66.6034 68.6798 66.5923C68.952 66.5812 69.3075 66.559 69.7464 66.5256V67.1089H69.5547C69.3158 67.1089 69.1297 67.1617 68.9964 67.2673C68.8686 67.3728 68.7742 67.52 68.7131 67.7089C68.6575 67.8922 68.6242 68.1117 68.6131 68.3672C68.602 68.6172 68.5964 68.8894 68.5964 69.1838V72.467C68.5964 72.6948 68.602 72.9086 68.6131 73.1086C68.6242 73.3086 68.6575 73.4836 68.7131 73.6336C68.7742 73.7836 68.8686 73.903 68.9964 73.9919C69.1297 74.0752 69.3158 74.1169 69.5547 74.1169H69.7464V74.7002C69.3075 74.6669 68.9353 74.6447 68.6298 74.6336C68.3242 74.6224 68.0881 74.6169 67.9215 74.6169C67.777 74.6169 67.6354 74.6197 67.4965 74.6252C67.3632 74.6252 67.2215 74.6308 67.0715 74.6419C66.9271 74.6474 66.7688 74.6558 66.5965 74.6669C66.4299 74.678 66.2438 74.6891 66.0382 74.7002V74.1169H66.2549C66.5715 74.1169 66.8132 73.9503 66.9799 73.6169C67.1465 73.2781 67.2298 72.7809 67.2298 72.1253V70.9171Z" fill="white"/>
<path d="M74.9128 67.1589C74.1684 67.1589 73.5684 67.4311 73.1129 67.9756C72.6629 68.5144 72.4379 69.2422 72.4379 70.1588C72.4379 71.3309 72.6879 72.2809 73.1879 73.0086C73.6934 73.7364 74.3489 74.1002 75.1544 74.1002C75.9322 74.1002 76.5516 73.8114 77.0127 73.2336C77.4793 72.6559 77.7126 71.8698 77.7126 70.8754C77.7126 69.7866 77.4488 68.895 76.921 68.2006C76.3988 67.5061 75.7294 67.1589 74.9128 67.1589ZM75.1294 66.284C76.3016 66.284 77.271 66.6784 78.0376 67.4673C78.8098 68.2506 79.1959 69.2227 79.1959 70.3838C79.1959 71.6615 78.7904 72.7392 77.9793 73.6169C77.1682 74.4891 76.1683 74.9252 74.9794 74.9252C73.7906 74.9252 72.8129 74.5252 72.0463 73.7253C71.2852 72.9253 70.9046 71.9142 70.9046 70.6921C70.9046 69.4699 71.3185 68.4311 72.1462 67.5756C72.9795 66.7145 73.9739 66.284 75.1294 66.284Z" fill="white"/>
<path d="M87.4871 70.0421H83.4207C83.104 70.0421 82.8124 70.0477 82.5457 70.0588C82.2791 70.0699 82.0318 70.0866 81.8041 70.1088V70.4171C81.8041 71.5059 82.0541 72.3476 82.554 72.942C83.0596 73.5364 83.7706 73.8336 84.6873 73.8336C85.0928 73.8336 85.4928 73.7669 85.8872 73.6336C86.2816 73.4947 86.701 73.2808 87.1455 72.992L87.4705 73.5253C86.8983 73.9919 86.3261 74.3447 85.7539 74.5836C85.1872 74.8224 84.6262 74.9419 84.0706 74.9419C82.9929 74.9419 82.1041 74.5586 81.4041 73.7919C80.7041 73.0197 80.3542 72.0309 80.3542 70.8254C80.3542 69.5422 80.7208 68.4644 81.4541 67.5923C82.1874 66.7201 83.0818 66.284 84.1373 66.284C85.1206 66.284 85.9039 66.6117 86.4872 67.2673C87.0705 67.9228 87.4038 68.8477 87.4871 70.0421ZM85.9455 69.1672C85.7789 68.4839 85.5261 67.9617 85.1872 67.6006C84.8484 67.2339 84.4428 67.0506 83.9706 67.0506C83.4373 67.0506 82.979 67.2645 82.5957 67.6922C82.2179 68.12 81.9707 68.6978 81.8541 69.4255C82.954 69.4255 83.8179 69.406 84.4456 69.3672C85.0789 69.3283 85.5789 69.2616 85.9455 69.1672Z" fill="white"/>
<path d="M97.8282 74.7169C97.6505 74.7169 97.481 74.7113 97.3199 74.7002C97.1588 74.6891 96.9811 74.678 96.7866 74.6669C96.5978 74.6558 96.3811 74.6447 96.1367 74.6336C95.8978 74.6224 95.6117 74.6169 95.2784 74.6169C94.9951 74.6169 94.7062 74.6252 94.4118 74.6419C94.1229 74.653 93.7868 74.6724 93.4035 74.7002V74.1169H93.5951C93.8396 74.1169 94.0312 74.0447 94.1701 73.9003C94.309 73.7503 94.4118 73.5697 94.4784 73.3586C94.5506 73.142 94.5951 72.9142 94.6117 72.6753C94.6284 72.4309 94.6367 72.217 94.6367 72.0337V69.1838C94.6367 68.7116 94.6201 68.3367 94.5868 68.0589C94.5534 67.7811 94.4951 67.5728 94.4118 67.4339C94.334 67.295 94.2284 67.2062 94.0951 67.1673C93.9673 67.1284 93.8062 67.1089 93.6118 67.1089H93.4201V66.5256C93.909 66.559 94.3007 66.5812 94.5951 66.5923C94.8951 66.6034 95.1284 66.609 95.2951 66.609C95.5561 66.609 95.7811 66.6062 95.97 66.6006C96.1589 66.5895 96.3339 66.5812 96.495 66.5756C96.6616 66.5645 96.82 66.5562 96.97 66.5506C97.1255 66.5395 97.3005 66.5312 97.4949 66.5256C98.0505 66.5256 98.5227 66.584 98.9115 66.7006C99.3004 66.8117 99.6143 66.9617 99.8531 67.1506C100.098 67.3395 100.273 67.5589 100.378 67.8089C100.489 68.0533 100.545 68.3061 100.545 68.5672C100.545 68.9561 100.423 69.3144 100.178 69.6421C99.9393 69.9644 99.6087 70.2116 99.1865 70.3838C99.4865 70.4504 99.7532 70.5504 99.9865 70.6838C100.225 70.8115 100.423 70.9643 100.578 71.1421C100.739 71.3198 100.861 71.5143 100.945 71.7254C101.028 71.9365 101.07 72.1587 101.07 72.392C101.07 72.792 100.981 73.1392 100.803 73.4336C100.631 73.728 100.395 73.9697 100.095 74.1586C99.8004 74.3475 99.4559 74.4891 99.0615 74.5836C98.6727 74.6724 98.2616 74.7169 97.8282 74.7169ZM96.0367 73.8169C96.2033 73.8614 96.3672 73.8947 96.5283 73.9169C96.695 73.9391 96.845 73.9586 96.9783 73.9753C97.1172 73.9864 97.2366 73.9947 97.3366 74.0003C97.4422 74.0003 97.5199 74.0003 97.5699 74.0003C97.931 74.0003 98.2393 73.9558 98.4949 73.8669C98.7504 73.778 98.956 73.6586 99.1115 73.5086C99.2726 73.3531 99.3893 73.1781 99.4615 72.9836C99.5337 72.7836 99.5698 72.5753 99.5698 72.3587C99.5698 72.1309 99.5337 71.9254 99.4615 71.742C99.3893 71.5532 99.2671 71.3921 99.0948 71.2587C98.9282 71.1254 98.7004 71.0226 98.4116 70.9504C98.1282 70.8782 97.7755 70.8421 97.3533 70.8421C96.9644 70.8421 96.52 70.8754 96.02 70.9421L96.0367 73.8169ZM96.02 70.1338C96.2478 70.1505 96.4561 70.1643 96.645 70.1755C96.8339 70.1866 97.0172 70.1921 97.1949 70.1921C97.4283 70.1921 97.6505 70.1866 97.8616 70.1755C98.0782 70.1643 98.306 70.1449 98.5449 70.1171C98.756 69.9394 98.906 69.7338 98.9949 69.5005C99.0893 69.2672 99.1365 69.0255 99.1365 68.7755C99.1365 68.5755 99.1032 68.3867 99.0365 68.2089C98.9754 68.0256 98.8671 67.8672 98.7115 67.7339C98.556 67.595 98.3504 67.4867 98.0949 67.4089C97.8449 67.3256 97.5338 67.2839 97.1616 67.2839C96.995 67.2839 96.8116 67.2923 96.6116 67.3089C96.4117 67.32 96.2311 67.3395 96.07 67.3673L96.02 70.1338Z" fill="white"/>
<path d="M108.711 73.0586L109.128 73.6919C108.589 74.103 108.058 74.4141 107.536 74.6252C107.014 74.8363 106.519 74.9419 106.053 74.9419C104.964 74.9419 104.075 74.553 103.386 73.7753C102.697 72.992 102.353 71.992 102.353 70.7754C102.353 69.5144 102.789 68.4478 103.661 67.5756C104.533 66.7034 105.597 66.2673 106.853 66.2673C107.497 66.2673 107.994 66.359 108.344 66.5423C108.694 66.7201 108.869 66.9701 108.869 67.2923C108.869 67.5256 108.797 67.7284 108.653 67.9006C108.514 68.0672 108.353 68.1506 108.169 68.1506C108.108 68.1506 107.85 68.0117 107.394 67.7339C106.944 67.4506 106.514 67.3089 106.103 67.3089C105.381 67.3089 104.806 67.57 104.378 68.0922C103.956 68.6089 103.745 69.3144 103.745 70.2088C103.745 71.3365 104 72.217 104.511 72.8503C105.028 73.4781 105.742 73.7919 106.653 73.7919C106.992 73.7919 107.328 73.7336 107.661 73.6169C108 73.5003 108.35 73.3142 108.711 73.0586Z" fill="white"/>
<path d="M114.069 70.2004L116.077 72.2837C116.777 73.0281 117.338 73.5642 117.761 73.8919C118.188 74.2197 118.499 74.3836 118.694 74.3836H118.752V74.8002C118.302 74.8613 117.911 74.8835 117.577 74.8669C117.249 74.8558 116.944 74.7947 116.661 74.6835C116.383 74.5724 116.111 74.4086 115.844 74.1919C115.583 73.9753 115.297 73.6919 114.986 73.342L112.619 70.7254V72.4503C112.619 72.7392 112.622 72.9892 112.627 73.2003C112.639 73.4114 112.669 73.5864 112.719 73.7253C112.775 73.8586 112.858 73.9586 112.969 74.0253C113.086 74.0864 113.25 74.1169 113.461 74.1169H113.677V74.7002C113.394 74.678 113.105 74.6586 112.811 74.6419C112.522 74.6252 112.216 74.6169 111.894 74.6169C111.611 74.6169 111.322 74.6252 111.028 74.6419C110.739 74.653 110.403 74.6724 110.019 74.7002V74.1169H110.211C110.455 74.1169 110.647 74.0447 110.786 73.9003C110.925 73.7503 111.028 73.5697 111.094 73.3586C111.166 73.142 111.211 72.9142 111.228 72.6753C111.244 72.4309 111.253 72.217 111.253 72.0337V69.1838C111.253 68.2672 111.18 67.6895 111.036 67.4506C110.964 67.3284 110.861 67.2423 110.728 67.1923C110.6 67.1367 110.433 67.1089 110.228 67.1089H110.036V66.5256C110.519 66.559 110.897 66.5812 111.169 66.5923C111.441 66.6034 111.661 66.609 111.828 66.609C112.005 66.609 112.23 66.6034 112.502 66.5923C112.78 66.5812 113.158 66.559 113.636 66.5256V67.1089H113.402C113.291 67.1089 113.186 67.1423 113.086 67.2089C112.986 67.27 112.9 67.3534 112.827 67.4589C112.689 67.6645 112.619 68.1033 112.619 68.7755V70.6588L114.094 69.3172C114.5 68.9505 114.847 68.6283 115.136 68.3505C115.425 68.0728 115.627 67.8422 115.744 67.6589C115.866 67.47 115.888 67.3284 115.811 67.2339C115.738 67.1395 115.544 67.0923 115.227 67.0923H115.111V66.5256C115.811 66.559 116.344 66.5756 116.711 66.5756C117.222 66.5756 117.794 66.559 118.427 66.5256V67.0839C118.405 67.0839 118.38 67.0839 118.352 67.0839C118.324 67.0784 118.283 67.0756 118.227 67.0756C118.049 67.0756 117.863 67.1173 117.669 67.2006C117.474 67.2784 117.252 67.4089 117.002 67.5923C116.758 67.77 116.475 68.0006 116.152 68.2839C115.836 68.5672 115.461 68.9089 115.027 69.3088L114.069 70.2004Z" fill="white"/>
<path d="M121.785 73.4919C122.119 73.653 122.452 73.778 122.785 73.8669C123.119 73.9558 123.435 74.0003 123.735 74.0003C124.557 74.0003 125.202 73.7308 125.668 73.192C126.141 72.6475 126.377 71.892 126.377 70.9254C126.377 69.881 126.146 69.0477 125.685 68.4255C125.224 67.7978 124.619 67.4839 123.869 67.4839C123.546 67.4839 123.207 67.5367 122.852 67.6422C122.502 67.7478 122.163 67.8978 121.835 68.0922C121.813 68.9033 121.796 69.6699 121.785 70.3921C121.774 71.1143 121.769 71.7754 121.769 72.3753C121.769 72.4809 121.771 72.6587 121.777 72.9086C121.783 73.1531 121.785 73.3475 121.785 73.4919ZM121.902 66.084L121.835 67.4173C122.341 67.0673 122.81 66.8117 123.244 66.6506C123.682 66.4895 124.113 66.409 124.535 66.409C125.452 66.409 126.218 66.7756 126.835 67.5089C127.452 68.2367 127.76 69.1422 127.76 70.2254C127.76 71.6365 127.366 72.742 126.577 73.5419C125.793 74.3363 124.707 74.7335 123.319 74.7335C123.063 74.7335 122.805 74.7085 122.544 74.6586C122.283 74.603 122.024 74.5252 121.769 74.4252V77.4001C121.769 78.0556 122.249 78.3889 123.21 78.4H123.219V79C122.852 78.9722 122.496 78.95 122.152 78.9333C121.813 78.9222 121.491 78.9167 121.185 78.9167C121.002 78.9167 120.763 78.9222 120.469 78.9333C120.174 78.9444 119.733 78.9667 119.144 79V78.4C119.505 78.4 119.749 78.3806 119.877 78.3417C120.005 78.3084 120.102 78.2445 120.169 78.15C120.313 77.9 120.391 76.7668 120.402 74.7502C120.402 74.3336 120.402 74.0086 120.402 73.7753L120.419 71.8837V69.1338C120.419 68.445 120.377 68.0145 120.294 67.8422C120.216 67.67 120.06 67.5839 119.827 67.5839C119.772 67.5839 119.705 67.5895 119.627 67.6006C119.549 67.6117 119.466 67.6284 119.377 67.6506L119.294 67.1423C119.766 67.0089 120.216 66.8562 120.644 66.684C121.077 66.5062 121.496 66.3062 121.902 66.084Z" fill="white"/>
<path d="M137.743 68.7755C137.743 68.3922 137.718 68.0922 137.668 67.8756C137.618 67.6534 137.551 67.4867 137.468 67.3756C137.39 67.2589 137.296 67.1867 137.185 67.1589C137.079 67.1256 136.968 67.1089 136.851 67.1089H136.726V66.5256C137.204 66.559 137.579 66.5812 137.851 66.5923C138.129 66.6034 138.357 66.609 138.534 66.609C138.701 66.609 138.921 66.6034 139.193 66.5923C139.465 66.5812 139.821 66.559 140.259 66.5256V67.1089H140.068C139.829 67.1089 139.643 67.1617 139.509 67.2673C139.382 67.3728 139.287 67.52 139.226 67.7089C139.171 67.8922 139.137 68.1117 139.126 68.3672C139.115 68.6172 139.109 68.8894 139.109 69.1838V72.467C139.109 72.6948 139.115 72.9086 139.126 73.1086C139.137 73.3086 139.171 73.4836 139.226 73.6336C139.287 73.7836 139.382 73.903 139.509 73.9919C139.643 74.0752 139.829 74.1169 140.068 74.1169H140.259V74.7002C139.821 74.6669 139.448 74.6447 139.143 74.6336C138.837 74.6224 138.601 74.6169 138.434 74.6169C138.29 74.6169 138.148 74.6197 138.009 74.6252C137.876 74.6252 137.735 74.6308 137.585 74.6419C137.44 74.6474 137.282 74.6558 137.11 74.6669C136.943 74.678 136.757 74.6891 136.551 74.7002V74.1169H136.768C137.085 74.1169 137.326 73.9503 137.493 73.6169C137.66 73.2781 137.743 72.7809 137.743 72.1253V68.7755ZM133.068 74.7252C132.874 74.7252 132.688 74.7197 132.51 74.7085C132.338 74.6974 132.165 74.6863 131.993 74.6752C131.826 74.6586 131.657 74.6447 131.485 74.6336C131.313 74.6224 131.132 74.6169 130.943 74.6169C130.66 74.6169 130.371 74.6252 130.077 74.6419C129.788 74.653 129.452 74.6724 129.068 74.7002V74.1169H129.26C129.504 74.1169 129.696 74.0447 129.835 73.9003C129.974 73.7503 130.077 73.5697 130.143 73.3586C130.215 73.142 130.26 72.9142 130.277 72.6753C130.293 72.4309 130.302 72.217 130.302 72.0337V69.1838C130.302 68.7116 130.285 68.3367 130.252 68.0589C130.218 67.7811 130.16 67.5728 130.077 67.4339C129.999 67.295 129.893 67.2062 129.76 67.1673C129.632 67.1284 129.471 67.1089 129.277 67.1089H129.085V66.5256C129.568 66.559 129.946 66.5812 130.218 66.5923C130.49 66.6034 130.71 66.609 130.877 66.609C131.054 66.609 131.31 66.6034 131.643 66.5923C131.982 66.5812 132.393 66.559 132.876 66.5256V67.1089H132.643C132.393 67.1089 132.201 67.1617 132.068 67.2673C131.935 67.3673 131.84 67.4978 131.785 67.6589C131.729 67.8145 131.699 67.9922 131.693 68.1922C131.688 68.3922 131.685 68.5866 131.685 68.7755L131.668 69.7505C132.107 69.6505 132.546 69.6005 132.985 69.6005C133.418 69.6005 133.826 69.6533 134.21 69.7588C134.599 69.8644 134.937 70.0227 135.226 70.2338C135.521 70.4393 135.754 70.7004 135.926 71.0171C136.098 71.3337 136.185 71.7031 136.185 72.1253C136.185 72.4753 136.11 72.8086 135.96 73.1253C135.815 73.4364 135.607 73.7114 135.335 73.9503C135.062 74.1836 134.735 74.3725 134.351 74.5169C133.968 74.6558 133.54 74.7252 133.068 74.7252ZM131.718 70.4171C131.707 70.6893 131.696 70.9837 131.685 71.3004C131.679 71.6115 131.676 71.9226 131.676 72.2337C131.676 72.5448 131.679 72.842 131.685 73.1253C131.696 73.4086 131.707 73.6586 131.718 73.8753C132.046 73.9753 132.388 74.028 132.743 74.0336C133.099 74.0391 133.424 73.978 133.718 73.8503C134.012 73.7225 134.254 73.5169 134.443 73.2336C134.637 72.9503 134.735 72.5725 134.735 72.1004C134.735 71.8004 134.679 71.5365 134.568 71.3087C134.457 71.081 134.304 70.8921 134.11 70.7421C133.921 70.5865 133.699 70.4727 133.443 70.4004C133.193 70.3227 132.929 70.2838 132.651 70.2838C132.501 70.2838 132.346 70.2949 132.185 70.3171C132.029 70.3393 131.874 70.3727 131.718 70.4171Z" fill="white"/>
<path d="M141.534 66.409C141.784 66.5034 142.148 66.559 142.626 66.5756C143.109 66.5867 143.729 66.5923 144.484 66.5923H145.867C146.106 66.5923 146.362 66.5923 146.634 66.5923C146.906 66.5867 147.178 66.5784 147.451 66.5673C147.723 66.5506 147.987 66.5256 148.242 66.4923C148.498 66.459 148.728 66.4118 148.934 66.3506C148.939 66.6729 148.951 67.0534 148.967 67.4923C148.989 67.9256 149.064 68.4283 149.192 69.0005L148.626 69.1088C148.531 68.7089 148.426 68.395 148.309 68.1672C148.198 67.9339 148.053 67.7589 147.876 67.6422C147.703 67.52 147.492 67.445 147.242 67.4173C146.992 67.3839 146.681 67.3673 146.309 67.3673H145.884L145.867 69.7505C145.862 70.3727 145.859 70.9143 145.859 71.3754C145.865 71.8309 145.879 72.2198 145.901 72.542C145.923 72.8642 145.956 73.1309 146.001 73.342C146.051 73.5475 146.12 73.7086 146.209 73.8253C146.298 73.9419 146.409 74.0225 146.542 74.0669C146.676 74.1114 146.84 74.1336 147.034 74.1336H147.251V74.7002C147.056 74.6891 146.781 74.6724 146.426 74.6502C146.076 74.628 145.659 74.6169 145.176 74.6169C144.681 74.6169 144.27 74.628 143.943 74.6502C143.615 74.6724 143.334 74.6891 143.101 74.7002V74.1336H143.309C143.493 74.1336 143.656 74.1141 143.801 74.0752C143.951 74.0364 144.076 73.9308 144.176 73.7586C144.276 73.5808 144.351 73.3114 144.401 72.9503C144.456 72.5837 144.484 72.0754 144.484 71.4254V69.7505L144.467 67.3673H144.109C143.776 67.3673 143.476 67.3839 143.209 67.4173C142.948 67.445 142.718 67.5173 142.518 67.6339C142.318 67.7506 142.148 67.9256 142.009 68.1589C141.87 68.3867 141.762 68.7033 141.684 69.1088L141.168 69.0005C141.212 68.8227 141.251 68.645 141.284 68.4672C141.318 68.2894 141.348 68.1006 141.376 67.9006C141.409 67.7006 141.437 67.4811 141.459 67.2423C141.487 66.9978 141.512 66.7201 141.534 66.409Z" fill="white"/>
<path d="M156.842 69.0505C156.697 69.1838 156.55 69.3227 156.4 69.4672C156.25 69.606 156.092 69.756 155.925 69.9171L154.2 71.567C153.928 71.8226 153.67 72.067 153.425 72.3003C153.181 72.5337 152.934 72.7725 152.684 73.017C152.684 73.167 152.689 73.3086 152.7 73.4419C152.712 73.5753 152.742 73.6919 152.792 73.7919C152.848 73.8919 152.931 73.9725 153.042 74.0336C153.159 74.0891 153.32 74.1169 153.525 74.1169H153.742V74.7002C153.459 74.678 153.17 74.6586 152.875 74.6419C152.587 74.6252 152.281 74.6169 151.959 74.6169C151.675 74.6169 151.387 74.6252 151.092 74.6419C150.803 74.653 150.467 74.6724 150.084 74.7002V74.1169H150.276C150.52 74.1169 150.712 74.0447 150.85 73.9003C150.989 73.7503 151.092 73.5697 151.159 73.3586C151.231 73.142 151.275 72.9142 151.292 72.6753C151.309 72.4309 151.317 72.217 151.317 72.0337V69.1838C151.317 68.2672 151.245 67.6895 151.1 67.4506C151.028 67.3284 150.925 67.2423 150.792 67.1923C150.664 67.1367 150.498 67.1089 150.292 67.1089H150.101V66.5256C150.584 66.559 150.962 66.5812 151.234 66.5923C151.506 66.6034 151.725 66.609 151.892 66.609C152.07 66.609 152.295 66.6034 152.567 66.5923C152.845 66.5812 153.223 66.559 153.7 66.5256V67.1089H153.467C153.356 67.1089 153.25 67.1423 153.15 67.2089C153.05 67.27 152.964 67.3534 152.892 67.4589C152.753 67.6645 152.684 68.1033 152.684 68.7755V71.967C152.845 71.817 153.006 71.667 153.167 71.517C153.334 71.3615 153.5 71.2032 153.667 71.0421L155.475 69.3338L156.834 68.0089C156.822 67.7756 156.792 67.5978 156.742 67.4756C156.692 67.3534 156.625 67.2645 156.542 67.2089C156.464 67.1534 156.372 67.1228 156.267 67.1173C156.167 67.1117 156.061 67.1089 155.95 67.1089H155.825V66.5256C156.303 66.559 156.678 66.5812 156.95 66.5923C157.228 66.6034 157.456 66.609 157.633 66.609C157.8 66.609 158.02 66.6034 158.292 66.5923C158.564 66.5812 158.92 66.559 159.358 66.5256V67.1089H159.167C158.928 67.1089 158.742 67.1617 158.608 67.2673C158.481 67.3728 158.386 67.52 158.325 67.7089C158.27 67.8922 158.236 68.1117 158.225 68.3672C158.214 68.6172 158.208 68.8894 158.208 69.1838V72.467C158.208 72.6948 158.214 72.9086 158.225 73.1086C158.236 73.3086 158.27 73.4836 158.325 73.6336C158.386 73.7836 158.481 73.903 158.608 73.9919C158.742 74.0752 158.928 74.1169 159.167 74.1169H159.358V74.7002C158.92 74.6669 158.547 74.6447 158.242 74.6336C157.936 74.6224 157.7 74.6169 157.533 74.6169C157.389 74.6169 157.247 74.6197 157.109 74.6252C156.975 74.6252 156.834 74.6308 156.684 74.6419C156.539 74.6474 156.381 74.6558 156.209 74.6669C156.042 74.678 155.856 74.6891 155.65 74.7002V74.1169H155.867C156.184 74.1169 156.425 73.9503 156.592 73.6169C156.759 73.2781 156.842 72.7809 156.842 72.1253V69.0505Z" fill="white"/>
<path d="M167.7 70.0421H163.633C163.317 70.0421 163.025 70.0477 162.758 70.0588C162.492 70.0699 162.244 70.0866 162.017 70.1088V70.4171C162.017 71.5059 162.267 72.3476 162.767 72.942C163.272 73.5364 163.983 73.8336 164.9 73.8336C165.305 73.8336 165.705 73.7669 166.1 73.6336C166.494 73.4947 166.914 73.2808 167.358 72.992L167.683 73.5253C167.111 73.9919 166.539 74.3447 165.966 74.5836C165.4 74.8224 164.839 74.9419 164.283 74.9419C163.205 74.9419 162.317 74.5586 161.617 73.7919C160.917 73.0197 160.567 72.0309 160.567 70.8254C160.567 69.5422 160.933 68.4644 161.667 67.5923C162.4 66.7201 163.294 66.284 164.35 66.284C165.333 66.284 166.116 66.6117 166.7 67.2673C167.283 67.9228 167.616 68.8477 167.7 70.0421ZM166.158 69.1672C165.991 68.4839 165.739 67.9617 165.4 67.6006C165.061 67.2339 164.655 67.0506 164.183 67.0506C163.65 67.0506 163.192 67.2645 162.808 67.6922C162.43 68.12 162.183 68.6978 162.067 69.4255C163.167 69.4255 164.03 69.406 164.658 69.3672C165.291 69.3283 165.791 69.2616 166.158 69.1672Z" fill="white"/>
<path d="M173.849 72.8253C174.238 73.2086 174.641 73.4892 175.058 73.6669C175.474 73.8447 175.938 73.9336 176.449 73.9336C176.738 73.9336 176.996 73.8947 177.224 73.8169C177.457 73.7336 177.655 73.6225 177.816 73.4836C177.982 73.3392 178.107 73.167 178.191 72.967C178.28 72.767 178.324 72.5448 178.324 72.3003C178.324 72.0559 178.285 71.8476 178.207 71.6754C178.13 71.4976 178.035 71.3504 177.924 71.2337C177.813 71.1115 177.694 71.0143 177.566 70.9421C177.438 70.8699 177.321 70.8171 177.216 70.7838C177.055 70.8226 176.902 70.856 176.757 70.8837C176.619 70.906 176.48 70.9254 176.341 70.9421C176.202 70.9532 176.063 70.9615 175.924 70.9671C175.791 70.9726 175.646 70.9726 175.491 70.9671V69.8338C175.758 69.8282 176.035 69.8421 176.324 69.8755C176.619 69.9032 176.949 69.9532 177.316 70.0255C177.41 69.981 177.505 69.9088 177.599 69.8088C177.699 69.7088 177.788 69.5921 177.866 69.4588C177.944 69.3255 178.005 69.1811 178.049 69.0255C178.099 68.87 178.124 68.7144 178.124 68.5589C178.124 68.3478 178.091 68.1478 178.024 67.9589C177.957 67.77 177.855 67.6034 177.716 67.4589C177.582 67.3145 177.407 67.2006 177.191 67.1173C176.974 67.0284 176.716 66.984 176.416 66.984C175.877 66.984 175.433 67.1617 175.083 67.5173C174.738 67.8672 174.533 68.3561 174.466 68.9838L173.833 68.8839C173.866 68.6394 173.905 68.3255 173.949 67.9422C173.999 67.5534 174.024 67.1451 174.024 66.7173C174.202 66.6673 174.396 66.6173 174.608 66.5673C174.819 66.5118 175.038 66.4645 175.266 66.4256C175.494 66.3812 175.721 66.3479 175.949 66.3257C176.183 66.2979 176.41 66.284 176.632 66.284C177.238 66.284 177.73 66.3506 178.107 66.484C178.491 66.6173 178.791 66.784 179.007 66.984C179.224 67.1784 179.371 67.3895 179.449 67.6173C179.527 67.8395 179.566 68.0395 179.566 68.2172C179.566 68.3839 179.546 68.5616 179.507 68.7505C179.468 68.9394 179.393 69.1283 179.282 69.3172C179.171 69.5005 179.013 69.6783 178.807 69.8505C178.602 70.0227 178.33 70.1755 177.991 70.3088C178.296 70.381 178.563 70.4865 178.791 70.6254C179.024 70.7643 179.216 70.9282 179.366 71.1171C179.521 71.3059 179.635 71.5143 179.707 71.742C179.785 71.9698 179.824 72.2087 179.824 72.4587C179.824 72.8586 179.735 73.2142 179.557 73.5253C179.38 73.8308 179.141 74.0891 178.841 74.3002C178.546 74.5058 178.207 74.6613 177.824 74.7669C177.441 74.878 177.041 74.9335 176.624 74.9335C176.269 74.9335 175.93 74.8947 175.608 74.8169C175.291 74.7447 174.994 74.6419 174.716 74.5086C174.444 74.3697 174.191 74.2058 173.958 74.0169C173.724 73.828 173.516 73.6169 173.333 73.3836L173.849 72.8253Z" fill="white"/>
<path d="M188.607 73.4919L188.84 74.0169C188.424 74.3169 188.043 74.5474 187.699 74.7085C187.354 74.8752 187.076 74.9585 186.865 74.9585C186.51 74.9585 186.243 74.8558 186.065 74.6502C185.888 74.4391 185.79 74.1225 185.774 73.7003C185.168 74.1058 184.665 74.3975 184.265 74.5752C183.865 74.7474 183.507 74.8335 183.19 74.8335C182.629 74.8335 182.16 74.6224 181.782 74.2002C181.404 73.778 181.216 73.2614 181.216 72.6503C181.216 71.6115 182.335 70.8282 184.574 70.3004C185.101 70.1782 185.513 70.081 185.807 70.0088C185.807 69.9144 185.81 69.7782 185.815 69.6005C185.832 69.2338 185.84 68.995 185.84 68.8839C185.84 68.3061 185.721 67.8811 185.482 67.6089C185.243 67.3312 184.879 67.1923 184.39 67.1923C183.913 67.1923 183.535 67.2812 183.257 67.4589C182.985 67.6311 182.849 67.8672 182.849 68.1672C182.849 68.195 182.852 68.2339 182.857 68.2839C182.863 68.3283 182.865 68.3617 182.865 68.3839C182.865 68.5561 182.782 68.7005 182.616 68.8172C182.449 68.9283 182.249 68.9838 182.016 68.9838C181.816 68.9838 181.668 68.9505 181.574 68.8839C181.479 68.8172 181.432 68.7144 181.432 68.5755C181.432 68.1311 181.807 67.6367 182.557 67.0923C183.307 66.5423 184.082 66.2673 184.882 66.2673C185.654 66.2673 186.24 66.4812 186.64 66.909C187.04 67.3312 187.24 67.9533 187.24 68.7755C187.24 69.2199 187.212 69.9032 187.157 70.8254C187.107 71.7476 187.082 72.4476 187.082 72.9253C187.082 73.2864 187.121 73.5308 187.199 73.6586C187.282 73.7864 187.426 73.8503 187.632 73.8503C187.721 73.8503 187.835 73.8253 187.974 73.7753C188.118 73.7197 188.329 73.6253 188.607 73.4919ZM185.765 70.6754C185.66 70.7032 185.501 70.7449 185.29 70.8004C183.485 71.2948 182.582 71.8781 182.582 72.5503C182.582 72.917 182.699 73.217 182.932 73.4503C183.165 73.678 183.474 73.7919 183.857 73.7919C184.09 73.7919 184.36 73.7308 184.665 73.6086C184.971 73.4864 185.326 73.292 185.732 73.0253L185.765 70.6754Z" fill="white"/>
<path d="M196.481 68.6422C196.565 68.4589 196.654 68.2728 196.748 68.0839C196.843 67.8895 196.926 67.7034 196.998 67.5256C197.076 67.3423 197.14 67.1728 197.19 67.0173C197.24 66.8562 197.265 66.7145 197.265 66.5923V66.5256C197.359 66.5368 197.462 66.5479 197.573 66.559C197.69 66.5645 197.804 66.5729 197.915 66.584C198.031 66.5895 198.142 66.5951 198.248 66.6006C198.359 66.6062 198.454 66.609 198.531 66.609C198.631 66.609 198.745 66.6062 198.873 66.6006C199.006 66.5951 199.14 66.5895 199.273 66.584C199.406 66.5729 199.534 66.5645 199.656 66.559C199.779 66.5479 199.884 66.5368 199.973 66.5256L200.006 67.0923H199.856C199.54 67.0923 199.309 67.1534 199.165 67.2756C199.02 67.3978 198.926 67.5728 198.881 67.8006C198.842 68.0283 198.837 68.3089 198.865 68.6422C198.892 68.97 198.923 69.3449 198.956 69.7671L199.123 72.0754C199.145 72.3587 199.173 72.6253 199.206 72.8753C199.245 73.1197 199.301 73.3336 199.373 73.5169C199.451 73.7003 199.551 73.8475 199.673 73.9586C199.801 74.0641 199.962 74.1169 200.156 74.1169H200.39V74.7002C200.24 74.6891 200.115 74.6808 200.015 74.6752C199.915 74.6641 199.806 74.6558 199.69 74.6502C199.579 74.6391 199.445 74.6308 199.29 74.6252C199.134 74.6197 198.926 74.6113 198.665 74.6002C198.342 74.6002 198.02 74.6113 197.698 74.6336C197.376 74.6558 197.04 74.678 196.69 74.7002V74.1169H196.873C197.012 74.1169 197.137 74.0975 197.248 74.0586C197.359 74.0141 197.454 73.9447 197.531 73.8503C197.615 73.7503 197.676 73.6197 197.715 73.4586C197.754 73.292 197.768 73.0864 197.756 72.842L197.54 68.0756L195.248 73.117C195.215 73.1892 195.179 73.267 195.14 73.3503C195.107 73.4281 195.07 73.5197 195.032 73.6253C194.993 73.7253 194.954 73.8391 194.915 73.9669C194.882 74.0947 194.851 74.2419 194.823 74.4086H194.29C194.245 74.2586 194.207 74.1364 194.173 74.0419C194.145 73.9419 194.118 73.8558 194.09 73.7836C194.068 73.7114 194.043 73.6475 194.015 73.5919C193.993 73.5308 193.965 73.4669 193.932 73.4003L191.582 68.2339L191.457 70.1255C191.446 70.2532 191.434 70.4282 191.423 70.6504C191.412 70.8671 191.401 71.0948 191.39 71.3337C191.385 71.5726 191.376 71.8059 191.365 72.0337C191.359 72.2615 191.357 72.4503 191.357 72.6003V72.8253C191.357 73.1031 191.379 73.3281 191.423 73.5003C191.473 73.6669 191.54 73.7975 191.623 73.8919C191.712 73.9808 191.818 74.0419 191.94 74.0752C192.062 74.103 192.198 74.1169 192.348 74.1169H192.532V74.7002C192.437 74.6891 192.24 74.6697 191.94 74.6419C191.646 74.6141 191.229 74.6002 190.69 74.6002C190.585 74.6002 190.485 74.603 190.39 74.6086C190.296 74.6141 190.193 74.6224 190.082 74.6336C189.971 74.6391 189.843 74.6502 189.698 74.6669C189.554 74.678 189.379 74.6891 189.174 74.7002V74.1169H189.407C189.657 74.1169 189.857 74.0586 190.007 73.9419C190.157 73.8253 190.273 73.6697 190.357 73.4753C190.44 73.2753 190.498 73.0503 190.532 72.8003C190.571 72.5448 190.601 72.2837 190.623 72.017L190.898 68.4172C190.921 68.1061 190.91 67.8645 190.865 67.6922C190.821 67.5145 190.748 67.3839 190.648 67.3006C190.554 67.2117 190.44 67.1589 190.307 67.1423C190.179 67.1201 190.046 67.1089 189.907 67.1089H189.773V66.5256C189.812 66.5312 189.876 66.5395 189.965 66.5506C190.06 66.5562 190.165 66.5645 190.282 66.5756C190.404 66.5812 190.532 66.5895 190.665 66.6006C190.798 66.6062 190.929 66.609 191.057 66.609C191.157 66.609 191.268 66.6062 191.39 66.6006C191.518 66.5951 191.643 66.5895 191.765 66.584C191.893 66.5729 192.015 66.5645 192.132 66.559C192.254 66.5479 192.365 66.5368 192.465 66.5256V66.5756C192.465 66.6701 192.479 66.7729 192.507 66.884C192.534 66.9951 192.565 67.1062 192.598 67.2173C192.637 67.3228 192.679 67.4256 192.723 67.5256C192.768 67.6256 192.807 67.7089 192.84 67.7756L194.873 72.1253L196.481 68.6422Z" fill="white"/>
<path d="M205.698 70.2004L207.706 72.2837C208.406 73.0281 208.967 73.5642 209.389 73.8919C209.817 74.2197 210.128 74.3836 210.322 74.3836H210.381V74.8002C209.931 74.8613 209.539 74.8835 209.206 74.8669C208.878 74.8558 208.572 74.7947 208.289 74.6835C208.011 74.5724 207.739 74.4086 207.473 74.1919C207.211 73.9753 206.925 73.6919 206.614 73.342L204.248 70.7254V72.4503C204.248 72.7392 204.251 72.9892 204.256 73.2003C204.267 73.4114 204.298 73.5864 204.348 73.7253C204.403 73.8586 204.487 73.9586 204.598 74.0253C204.714 74.0864 204.878 74.1169 205.089 74.1169H205.306V74.7002C205.023 74.678 204.734 74.6586 204.439 74.6419C204.15 74.6252 203.845 74.6169 203.523 74.6169C203.239 74.6169 202.951 74.6252 202.656 74.6419C202.367 74.653 202.031 74.6724 201.648 74.7002V74.1169H201.84C202.084 74.1169 202.276 74.0447 202.414 73.9003C202.553 73.7503 202.656 73.5697 202.723 73.3586C202.795 73.142 202.839 72.9142 202.856 72.6753C202.873 72.4309 202.881 72.217 202.881 72.0337V69.1838C202.881 68.2672 202.809 67.6895 202.664 67.4506C202.592 67.3284 202.489 67.2423 202.356 67.1923C202.228 67.1367 202.062 67.1089 201.856 67.1089H201.665V66.5256C202.148 66.559 202.526 66.5812 202.798 66.5923C203.07 66.6034 203.289 66.609 203.456 66.609C203.634 66.609 203.859 66.6034 204.131 66.5923C204.409 66.5812 204.787 66.559 205.264 66.5256V67.1089H205.031C204.92 67.1089 204.814 67.1423 204.714 67.2089C204.614 67.27 204.528 67.3534 204.456 67.4589C204.317 67.6645 204.248 68.1033 204.248 68.7755V70.6588L205.723 69.3172C206.128 68.9505 206.475 68.6283 206.764 68.3505C207.053 68.0728 207.256 67.8422 207.373 67.6589C207.495 67.47 207.517 67.3284 207.439 67.2339C207.367 67.1395 207.173 67.0923 206.856 67.0923H206.739V66.5256C207.439 66.559 207.973 66.5756 208.339 66.5756C208.85 66.5756 209.422 66.559 210.056 66.5256V67.0839C210.034 67.0839 210.009 67.0839 209.981 67.0839C209.953 67.0784 209.911 67.0756 209.856 67.0756C209.678 67.0756 209.492 67.1173 209.297 67.2006C209.103 67.2784 208.881 67.4089 208.631 67.5923C208.386 67.77 208.103 68.0006 207.781 68.2839C207.464 68.5672 207.089 68.9089 206.656 69.3088L205.698 70.2004Z" fill="white"/>
<path d="M215.122 67.1589C214.378 67.1589 213.778 67.4311 213.322 67.9756C212.872 68.5144 212.647 69.2422 212.647 70.1588C212.647 71.3309 212.897 72.2809 213.397 73.0086C213.903 73.7364 214.558 74.1002 215.364 74.1002C216.142 74.1002 216.761 73.8114 217.222 73.2336C217.689 72.6559 217.922 71.8698 217.922 70.8754C217.922 69.7866 217.658 68.895 217.13 68.2006C216.608 67.5061 215.939 67.1589 215.122 67.1589ZM215.339 66.284C216.511 66.284 217.48 66.6784 218.247 67.4673C219.019 68.2506 219.405 69.2227 219.405 70.3838C219.405 71.6615 219 72.7392 218.189 73.6169C217.378 74.4891 216.378 74.9252 215.189 74.9252C214 74.9252 213.022 74.5252 212.256 73.7253C211.495 72.9253 211.114 71.9142 211.114 70.6921C211.114 69.4699 211.528 68.4311 212.356 67.5756C213.189 66.7145 214.183 66.284 215.339 66.284Z" fill="white"/>
<path d="M224.955 74.7169C224.777 74.7169 224.608 74.7113 224.447 74.7002C224.286 74.6891 224.108 74.678 223.913 74.6669C223.724 74.6558 223.508 74.6447 223.263 74.6336C223.025 74.6224 222.738 74.6169 222.405 74.6169C222.122 74.6169 221.833 74.6252 221.538 74.6419C221.25 74.653 220.914 74.6724 220.53 74.7002V74.1169H220.722C220.966 74.1169 221.158 74.0447 221.297 73.9003C221.436 73.7503 221.538 73.5697 221.605 73.3586C221.677 73.142 221.722 72.9142 221.738 72.6753C221.755 72.4309 221.763 72.217 221.763 72.0337V69.1838C221.763 68.7116 221.747 68.3367 221.713 68.0589C221.68 67.7811 221.622 67.5728 221.538 67.4339C221.461 67.295 221.355 67.2062 221.222 67.1673C221.094 67.1284 220.933 67.1089 220.739 67.1089H220.547V66.5256C221.036 66.559 221.427 66.5812 221.722 66.5923C222.022 66.6034 222.255 66.609 222.422 66.609C222.683 66.609 222.908 66.6062 223.097 66.6006C223.286 66.5895 223.461 66.5812 223.622 66.5756C223.788 66.5645 223.947 66.5562 224.097 66.5506C224.252 66.5395 224.427 66.5312 224.622 66.5256C225.177 66.5256 225.649 66.584 226.038 66.7006C226.427 66.8117 226.741 66.9617 226.98 67.1506C227.224 67.3395 227.399 67.5589 227.505 67.8089C227.616 68.0533 227.672 68.3061 227.672 68.5672C227.672 68.9561 227.549 69.3144 227.305 69.6421C227.066 69.9644 226.735 70.2116 226.313 70.3838C226.613 70.4504 226.88 70.5504 227.113 70.6838C227.352 70.8115 227.549 70.9643 227.705 71.1421C227.866 71.3198 227.988 71.5143 228.071 71.7254C228.155 71.9365 228.196 72.1587 228.196 72.392C228.196 72.792 228.108 73.1392 227.93 73.4336C227.758 73.728 227.522 73.9697 227.222 74.1586C226.927 74.3475 226.583 74.4891 226.188 74.5836C225.799 74.6724 225.388 74.7169 224.955 74.7169ZM223.163 73.8169C223.33 73.8614 223.494 73.8947 223.655 73.9169C223.822 73.9391 223.972 73.9586 224.105 73.9753C224.244 73.9864 224.363 73.9947 224.463 74.0003C224.569 74.0003 224.647 74.0003 224.697 74.0003C225.058 74.0003 225.366 73.9558 225.622 73.8669C225.877 73.778 226.083 73.6586 226.238 73.5086C226.399 73.3531 226.516 73.1781 226.588 72.9836C226.66 72.7836 226.697 72.5753 226.697 72.3587C226.697 72.1309 226.66 71.9254 226.588 71.742C226.516 71.5532 226.394 71.3921 226.222 71.2587C226.055 71.1254 225.827 71.0226 225.538 70.9504C225.255 70.8782 224.902 70.8421 224.48 70.8421C224.091 70.8421 223.647 70.8754 223.147 70.9421L223.163 73.8169ZM223.147 70.1338C223.374 70.1505 223.583 70.1643 223.772 70.1755C223.961 70.1866 224.144 70.1921 224.322 70.1921C224.555 70.1921 224.777 70.1866 224.988 70.1755C225.205 70.1643 225.433 70.1449 225.672 70.1171C225.883 69.9394 226.033 69.7338 226.122 69.5005C226.216 69.2672 226.263 69.0255 226.263 68.7755C226.263 68.5755 226.23 68.3867 226.163 68.2089C226.102 68.0256 225.994 67.8672 225.838 67.7339C225.683 67.595 225.477 67.4867 225.222 67.4089C224.972 67.3256 224.661 67.2839 224.288 67.2839C224.122 67.2839 223.938 67.2923 223.738 67.3089C223.538 67.32 223.358 67.3395 223.197 67.3673L223.147 70.1338Z" fill="white"/>
<path d="M110.373 15.1543H109.497C109.351 14.6267 109.205 14.1623 109.059 13.7613C108.934 13.3603 108.778 13.0015 108.59 12.6849C108.424 12.3472 108.236 12.0517 108.028 11.7984C107.819 11.524 107.579 11.2391 107.308 10.9436C106.057 9.61391 104.598 8.94906 102.93 8.94906C101.826 8.94906 100.929 9.24455 100.241 9.83552C99.574 10.4265 99.2405 11.2285 99.2405 12.2416C99.2405 13.2336 99.647 14.1623 100.46 15.0277C101.273 15.893 102.607 16.8428 104.463 17.877C106.839 19.1856 108.549 20.4626 109.591 21.7078C110.654 22.9531 111.186 24.3145 111.186 25.7919C111.186 26.7206 110.998 27.586 110.623 28.388C110.248 29.19 109.737 29.8866 109.091 30.4775C108.444 31.0685 107.673 31.5328 106.777 31.8705C105.88 32.2082 104.921 32.3771 103.9 32.3771C103.17 32.3771 102.451 32.3138 101.742 32.1871C101.033 32.0605 100.345 31.8494 99.6783 31.554C99.3239 31.4273 99.0008 31.3323 98.7089 31.269C98.417 31.1846 98.1773 31.1424 97.9897 31.1424C97.7187 31.1424 97.4893 31.2585 97.3017 31.4906C97.1141 31.7228 97.0099 32.0077 96.989 32.3454H96.2072L95.144 24.6838H95.9571C96.8535 26.9 97.875 28.5252 99.0216 29.5594C100.168 30.5725 101.555 31.0791 103.181 31.0791C104.494 31.0791 105.547 30.7097 106.339 29.971C107.152 29.2323 107.558 28.2614 107.558 27.0583C107.558 26.594 107.506 26.1824 107.402 25.8236C107.319 25.4648 107.194 25.1587 107.027 24.9055C106.61 24.2301 105.943 23.5335 105.026 22.8159C104.129 22.0983 103.045 21.3807 101.773 20.6631C100.773 20.1354 99.918 19.6078 99.2092 19.0801C98.5004 18.5524 97.9167 18.0037 97.4581 17.4338C97.0203 16.8639 96.6972 16.273 96.4887 15.6609C96.2802 15.0488 96.176 14.3839 96.176 13.6663C96.176 11.6612 96.8639 10.0994 98.2398 8.98072C98.8236 8.49527 99.4698 8.12591 100.179 7.87263C100.887 7.59825 101.586 7.46106 102.274 7.46106C102.899 7.46106 103.525 7.53493 104.15 7.68268C104.796 7.80931 105.453 7.99927 106.12 8.25255C106.454 8.40029 106.756 8.50582 107.027 8.56914C107.298 8.63246 107.527 8.66412 107.715 8.66412C108.299 8.66412 108.674 8.2631 108.841 7.46106H109.591L110.373 15.1543Z" fill="white"/>
<path d="M134.054 22.0981C133.685 22.1168 133.371 22.1634 133.113 22.2379C132.873 22.2939 132.652 22.4337 132.449 22.6574C132.246 22.8624 132.043 23.1607 131.84 23.5521C131.656 23.925 131.425 24.4283 131.148 25.0621L124.147 42.9579H123.676L115.9 25.4256C115.549 24.6986 115.245 24.1207 114.986 23.692C114.747 23.2632 114.507 22.937 114.267 22.7133C114.046 22.4709 113.796 22.3125 113.52 22.2379C113.261 22.1447 112.939 22.0981 112.551 22.0981V21.455H120.992V22.0981L120.051 22.1261C119.073 22.182 118.584 22.5175 118.584 23.1327C118.584 23.2632 118.603 23.4123 118.639 23.5801C118.676 23.7292 118.741 23.9343 118.833 24.1953C118.925 24.4563 119.055 24.7825 119.221 25.174C119.387 25.5654 119.608 26.0594 119.885 26.6559L124.645 37.4493L129.266 25.7612C129.488 25.2578 129.645 24.8011 129.737 24.391C129.848 23.9809 129.903 23.6454 129.903 23.3844C129.903 23.2352 129.857 23.0768 129.765 22.909C129.672 22.7226 129.552 22.5828 129.405 22.4896C129.202 22.3405 128.98 22.2472 128.741 22.21C128.519 22.154 128.141 22.1168 127.606 22.0981V21.455H134.054V22.0981Z" fill="white"/>
<line x1="116.647" y1="1" x2="140.539" y2="1" stroke="white" stroke-width="2"/>
<line x1="139.539" y1="25.8921" x2="139.539" y2="2" stroke="white" stroke-width="2"/>
<line x1="110.21" y1="47.7123" x2="86.3177" y2="47.7123" stroke="white" stroke-width="2"/>
<line x1="87.3177" y1="22.8203" x2="87.3177" y2="46.7123" stroke="white" stroke-width="2"/>
</svg>
