<svg width="30" height="30" viewBox="0 0 30 30" fill="none" xmlns="http://www.w3.org/2000/svg">
<rect width="30" height="30" rx="15" fill="#11263A"/>
<path d="M21.0001 11.2793C20.5539 11.475 20.0783 11.6048 19.5826 11.6678C20.0926 11.3633 20.4819 10.8848 20.6649 10.308C20.1893 10.5915 19.6643 10.7918 19.1048 10.9035C18.6533 10.4228 18.0098 10.125 17.3078 10.125C15.9458 10.125 14.8493 11.2305 14.8493 12.5858C14.8493 12.7808 14.8658 12.9683 14.9063 13.1468C12.861 13.047 11.0513 12.0668 9.83551 10.5735C9.62326 10.9418 9.49875 11.3633 9.49875 11.817C9.49875 12.669 9.93751 13.4243 10.5915 13.8615C10.1963 13.854 9.80851 13.7393 9.48 13.5585C9.48 13.566 9.48 13.5758 9.48 13.5855C9.48 14.781 10.3328 15.774 11.451 16.0028C11.2508 16.0576 11.0325 16.0838 10.806 16.0838C10.6485 16.0838 10.4895 16.0748 10.3403 16.0418C10.659 17.0161 11.5635 17.7323 12.639 17.7556C11.802 18.4103 10.7393 18.8048 9.58876 18.8048C9.387 18.8048 9.1935 18.7958 9 18.7711C10.0898 19.4738 11.3813 19.8751 12.774 19.8751C17.3011 19.8751 19.7761 16.1251 19.7761 12.8745C19.7761 12.7658 19.7723 12.6608 19.7671 12.5565C20.2554 12.21 20.6656 11.7773 21.0001 11.2793Z" fill="white"/>
</svg>
