<svg width="30" height="30" viewBox="0 0 30 30" fill="none" xmlns="http://www.w3.org/2000/svg">
<rect width="30" height="30" rx="15" fill="#11263A"/>
<path fill-rule="evenodd" clip-rule="evenodd" d="M20.0488 16.0761C20.5132 16.5295 21.0034 16.9561 21.4199 17.4552C21.6039 17.677 21.7781 17.9059 21.9113 18.1633C22.1001 18.5292 21.9291 18.9319 21.601 18.9537L19.5615 18.9528C19.0355 18.9965 18.6158 18.7847 18.263 18.425C17.9806 18.1374 17.7191 17.8313 17.4476 17.534C17.3363 17.4125 17.2198 17.2981 17.0806 17.2077C16.8021 17.027 16.5605 17.0823 16.4014 17.3727C16.2393 17.6681 16.2026 17.9951 16.1867 18.3243C16.1648 18.8045 16.0196 18.9308 15.5372 18.9528C14.5062 19.0014 13.5278 18.8454 12.6188 18.3253C11.8174 17.8668 11.196 17.2195 10.6551 16.4868C9.60201 15.0599 8.79553 13.4919 8.0707 11.8801C7.90755 11.5169 8.02687 11.322 8.42755 11.3151C9.09291 11.3022 9.75817 11.3031 10.4243 11.3142C10.6947 11.3181 10.8737 11.4733 10.9782 11.7287C11.3381 12.6139 11.7786 13.456 12.3315 14.2366C12.4787 14.4444 12.6289 14.6522 12.8427 14.7985C13.0792 14.9604 13.2593 14.9067 13.3705 14.6433C13.4411 14.4762 13.4721 14.2963 13.488 14.1173C13.5407 13.5017 13.5476 12.8872 13.4552 12.2738C13.3984 11.891 13.1828 11.6431 12.8008 11.5707C12.6058 11.5337 12.6349 11.4612 12.7292 11.3499C12.8932 11.158 13.0474 11.0386 13.3547 11.0386H15.6597C16.0226 11.1102 16.1032 11.2732 16.1528 11.6383L16.1548 14.1987C16.1509 14.34 16.2254 14.7595 16.48 14.8531C16.6838 14.9197 16.8181 14.7566 16.9404 14.6274C17.4922 14.0417 17.8861 13.3495 18.238 12.6327C18.3942 12.3175 18.5284 11.9902 18.6586 11.6632C18.755 11.4205 18.9063 11.3011 19.1796 11.3064L21.398 11.3083C21.4638 11.3083 21.5304 11.3093 21.5941 11.3202C21.9679 11.3839 22.0703 11.5447 21.9549 11.9098C21.773 12.4825 21.419 12.9598 21.0729 13.4392C20.703 13.9511 20.3073 14.4455 19.9404 14.9605C19.6034 15.4307 19.6301 15.6677 20.0488 16.0761Z" fill="white"/>
</svg>
