<svg width="30" height="30" viewBox="0 0 30 30" fill="none" xmlns="http://www.w3.org/2000/svg">
<rect width="30" height="30" rx="15" fill="#11263A"/>
<path d="M21.0307 15.2544C20.9577 14.9226 20.7959 14.6443 20.5457 14.4195C20.2954 14.1946 20.0073 14.0624 19.681 14.0231C18.6465 13.9106 17.0862 13.8544 15 13.8544C12.9138 13.8544 11.3563 13.9107 10.3273 14.0231C9.99562 14.0624 9.70605 14.1946 9.45855 14.4195C9.21111 14.6444 9.04804 14.9227 8.96929 15.2544C8.82312 15.9068 8.75 16.8908 8.75 18.2065C8.75 19.5447 8.82312 20.5288 8.96929 21.1586C9.04249 21.4902 9.20417 21.7687 9.45439 21.9935C9.70461 22.2184 9.99278 22.3477 10.3189 22.3815C11.3536 22.4996 12.914 22.5586 15 22.5586C17.0859 22.5586 18.6467 22.4996 19.681 22.3815C20.0072 22.3477 20.2939 22.2184 20.5414 21.9935C20.7889 21.7688 20.952 21.4902 21.0306 21.1586C21.1768 20.5063 21.25 19.5223 21.25 18.2065C21.25 16.8683 21.1768 15.8842 21.0307 15.2544ZM12.318 16.1065H11.4156V20.9055H10.5722V16.1065H9.68653V15.3137H12.3181L12.318 16.1065ZM14.5952 20.9055H13.8446V20.4499C13.541 20.793 13.2541 20.9645 12.9842 20.9645C12.7256 20.9645 12.5625 20.8604 12.4951 20.6524C12.4502 20.5175 12.4276 20.3121 12.4276 20.0367V16.7389H13.1782V19.809C13.1782 19.9888 13.1811 20.0873 13.1867 20.1042C13.2036 20.2223 13.2626 20.2813 13.3639 20.2813C13.5156 20.2813 13.676 20.1632 13.8446 19.9271V16.7389H14.5953L14.5952 20.9055ZM17.4629 19.6571C17.4629 20.0676 17.4377 20.3489 17.3873 20.5008C17.2915 20.8099 17.092 20.9645 16.7884 20.9645C16.5185 20.9645 16.2571 20.8099 16.0039 20.5008V20.9056H15.2534V15.3137H16.0039V17.1439C16.2458 16.8404 16.5072 16.6886 16.7884 16.6886C17.092 16.6886 17.2915 16.8461 17.3873 17.1609C17.4376 17.3071 17.4629 17.5854 17.4629 17.9958V19.6571ZM20.3137 18.9656H18.804V19.6994C18.804 20.0874 18.9333 20.2813 19.192 20.2813C19.3775 20.2813 19.49 20.1802 19.5293 19.9776C19.5404 19.9214 19.5462 19.75 19.5462 19.4632H20.3137V19.5728C20.3137 19.8484 20.308 20.0114 20.2968 20.0621C20.2801 20.2138 20.2212 20.3656 20.1197 20.5175C19.9173 20.8155 19.6134 20.9645 19.2086 20.9645C18.8208 20.9645 18.5171 20.8211 18.2978 20.5344C18.1348 20.3264 18.0533 20.0002 18.0533 19.556V18.0968C18.0533 17.6526 18.1319 17.3265 18.2893 17.1184C18.5087 16.8317 18.8095 16.6883 19.192 16.6883C19.5688 16.6883 19.867 16.8317 20.086 17.1184C20.238 17.3265 20.3137 17.6526 20.3137 18.0968V18.9656Z" fill="white"/>
<path d="M16.3832 17.3712C16.2538 17.3712 16.1274 17.4333 16.0037 17.5568V20.0955C16.1274 20.2191 16.2538 20.281 16.3832 20.281C16.6024 20.281 16.7123 20.0927 16.7123 19.7158V17.9364C16.7122 17.5596 16.6026 17.3712 16.3832 17.3712Z" fill="white"/>
<path d="M19.1834 17.3712C18.9304 17.3712 18.8039 17.5625 18.8039 17.9446V18.3326H19.5629V17.9446C19.5629 17.5623 19.4364 17.3712 19.1834 17.3712Z" fill="white"/>
<path d="M11.8295 10.8096V13.0954H12.6728V10.8096L13.6932 7.44434H12.833L12.2595 9.66258L11.6607 7.44434H10.7667C10.9241 7.91671 11.1069 8.4424 11.3149 9.02159C11.5792 9.7975 11.7506 10.3936 11.8295 10.8096Z" fill="white"/>
<path d="M14.8228 13.154C15.2108 13.154 15.5087 13.0106 15.7167 12.7239C15.8743 12.5158 15.9529 12.184 15.9529 11.7286V10.2526C15.9529 9.8028 15.8741 9.47377 15.7167 9.2657C15.5087 8.97894 15.2108 8.83555 14.8228 8.83555C14.4459 8.83555 14.1507 8.97894 13.9371 9.2657C13.7797 9.47377 13.701 9.8028 13.701 10.2526V11.7286C13.701 12.1784 13.7796 12.5102 13.9371 12.7238C14.1508 13.0106 14.4459 13.154 14.8228 13.154ZM14.46 10.1007C14.46 9.71273 14.5809 9.51873 14.8228 9.51873C15.0646 9.51873 15.1854 9.71273 15.1854 10.1007V11.8719C15.1854 12.2656 15.0646 12.4623 14.8228 12.4623C14.5809 12.4623 14.46 12.2655 14.46 11.8719V10.1007Z" fill="white"/>
<path d="M17.1422 13.1543C17.4235 13.1543 17.7132 12.98 18.0111 12.6313V13.0952H18.7786V8.88647H18.0111V12.0999C17.8424 12.3417 17.6822 12.4625 17.5302 12.4625C17.4289 12.4625 17.3698 12.4007 17.3531 12.277C17.3474 12.2658 17.3446 12.1673 17.3446 11.9818V8.88647H16.5771V12.2097C16.5771 12.4964 16.5997 12.7071 16.6446 12.8422C16.7178 13.0502 16.8836 13.1543 17.1422 13.1543Z" fill="white"/>
</svg>
